#!OML:ASF E:\id_vita\Project 1\Capture day 1\Session 1\Female.ASF
:FULLY-SPECIFIED
:DEGREES
631
root 5.32471 16.2702 -1.39487 -135.108 -92.7228 149.184
lowerback -18.0483 -2.65443 -4.43966
upperback -5.88653 -3.2016 2.76249
thorax 4.15122 -1.7109 4.76988
lowerneck 7.24159 -0.689307 -5.11428
upperneck -1.5405 -1.17832 6.46843
head -1.70009 -0.720689 3.05233
rclavicle -5.09386e-015 3.57812e-015
rhumerus -62.5375 -43.0354 -36.6025
rradius 13.2644
rwrist 45.9449
rhand -11.9999 9.85877
rfingers 7.12502
rthumb 14.0571 -19.6458
lclavicle -5.09386e-015 3.57812e-015
lhumerus -22.0913 18.7755 87.4882
lradius 25.491
lwrist -28.4106
lhand -14.439 19.7537
lfingers 7.12502
lthumb 11.7058 49.4067
rfemur -37.8133 8.29045 22.2915
rtibia 22.9212
rfoot -2.68729 -1.30525
rtoes -12.6854
lfemur 1.20926 -0.840353 -21.6716
ltibia 33.0367
lfoot 2.86605 -13.793
ltoes 0.464833
632
root 5.13396 16.2979 -1.3988 -134.993 -92.9141 148.675
lowerback -17.74 -2.65734 -4.38659
upperback -5.79741 -3.21881 2.81329
thorax 4.08745 -1.7157 4.79805
lowerneck 7.05295 -0.656153 -5.14382
upperneck -1.28115 -1.14042 6.4783
head -1.58355 -0.698787 3.05266
rclavicle 3.3694e-014 -2.38542e-014
rhumerus -61.8136 -42.7148 -37.7321
rradius 13.3355
rwrist 44.7704
rhand -12.0833 9.62102
rfingers 7.12502
rthumb 13.9767 -19.8891
lclavicle 3.3694e-014 -2.38542e-014
lhumerus -23.0398 20.3989 86.8627
lradius 24.6236
lwrist -30.0887
lhand -14.2309 19.4355
lfingers 7.12502
lthumb 11.9065 49.0769
rfemur -36.8679 7.58627 22.9313
rtibia 23.46
rfoot -3.61487 -0.693641
rtoes -9.27436
lfemur 0.564663 -0.297713 -21.1805
ltibia 35.2719
lfoot 6.11561 -14.0662
ltoes 0.155234
633
root 4.93513 16.3287 -1.40784 -143.557 -93.3145 156.552
lowerback -17.1165 -2.82618 -4.74571
upperback -5.7053 -3.38665 2.7975
thorax 3.89324 -1.78873 4.96836
lowerneck 7.20479 -0.674311 -5.22897
upperneck -1.2458 -1.17986 6.50325
head -1.59704 -0.721108 3.08066
rclavicle 1.81391e-015 -1.98785e-015
rhumerus -60.3012 -41.2779 -40.4779
rradius 13.7801
rwrist 41.902
rhand -11.9086 9.72186
rfingers 7.12502
rthumb 14.1451 -19.7766
lclavicle 1.81391e-015 -1.98785e-015
lhumerus -24.1292 21.7033 86.2649
lradius 23.7147
lwrist -31.0882
lhand -13.6362 19.5153
lfingers 7.12502
lthumb 12.4799 49.1227
rfemur -35.4822 6.80621 23.2067
rtibia 23.9543
rfoot -4.47745 -0.385579
rtoes -7.42292
lfemur 0.23047 -0.109247 -20.8635
ltibia 37.5347
lfoot 9.16954 -14.2493
ltoes 0.69303
634
root 4.74868 16.3457 -1.41996 -133.591 -93.2116 147.018
lowerback -17.4612 -2.58396 -4.38907
upperback -5.91591 -3.14084 2.90038
thorax 3.80925 -1.66975 4.92108
lowerneck 7.37224 -0.748439 -5.43152
upperneck -1.33071 -1.29574 6.67713
head -1.64799 -0.784601 3.18738
rclavicle 8.07563e-015 -6.75868e-015
rhumerus -58.8202 -39.7237 -43.3035
rradius 14.2772
rwrist 38.9799
rhand -11.3948 9.62853
rfingers 7.12502
rthumb 14.6402 -19.8347
lclavicle 8.07563e-015 -6.75868e-015
lhumerus -25.2365 23.2404 85.5454
lradius 22.6945
lwrist -31.7828
lhand -13.5151 19.6167
lfingers 7.12502
lthumb 12.5966 49.2169
rfemur -35.4083 7.09214 23.8166
rtibia 24.2079
rfoot -5.0765 -0.0300727
rtoes -7.81132
lfemur -1.56643 0.789902 -20.1409
ltibia 40.0857
lfoot 11.8749 -14.1303
ltoes -0.249161
635
root 4.57027 16.3783 -1.42974 -134.075 -93.2613 147.801
lowerback -17.5858 -2.56308 -4.45019
upperback -6.04802 -3.10818 2.89436
thorax 3.73149 -1.65288 4.95562
lowerneck 7.39961 -0.824855 -5.56232
upperneck -1.35585 -1.40692 6.7738
head -1.65373 -0.841905 3.25048
rclavicle -2.22142e-014 3.75703e-014
rhumerus -57.6202 -38.7241 -45.4474
rradius 14.6035
rwrist 36.8656
rhand -11.0171 9.58439
rfingers 7.12502
rthumb 15.004 -19.852
lclavicle -2.22142e-014 3.75703e-014
lhumerus -26.3487 24.9801 84.6812
lradius 21.8737
lwrist -32.4425
lhand -12.3679 20.3756
lfingers 7.12502
lthumb 13.7024 49.9045
rfemur -34.9922 6.69872 24.0567
rtibia 24.2924
rfoot -5.63058 0.301764
rtoes -7.97539
lfemur -3.31874 1.17521 -19.8898
ltibia 42.7721
lfoot 14.545 -13.8443
ltoes -0.526426
636
root 4.37673 16.4101 -1.44856 -134.546 -93.6571 148.243
lowerback -17.5494 -2.59468 -4.41702
upperback -6.10833 -3.16092 2.92921
thorax 3.65465 -1.67695 4.96491
lowerneck 7.40661 -0.920562 -5.61312
upperneck -1.19604 -1.54528 6.90474
head -1.59305 -0.914623 3.30744
rclavicle 3.79927e-014 -1.8487e-014
rhumerus -56.3887 -37.3741 -47.95
rradius 15.0337
rwrist 34.3315
rhand -10.8647 9.37694
rfingers 7.12502
rthumb 15.1509 -20.0484
lclavicle 3.79927e-014 -1.8487e-014
lhumerus -27.4324 26.7154 83.5876
lradius 21.1104
lwrist -33.8939
lhand -9.92874 21.8447
lfingers 7.12502
lthumb 16.0523 51.1998
rfemur -34.0623 6.65749 24.4667
rtibia 24.2268
rfoot -5.84109 -0.135777
rtoes -9.10592
lfemur -4.82614 1.4375 -19.2378
ltibia 45.5746
lfoot 16.273 -13.179
ltoes -1.73229
637
root 4.19838 16.4273 -1.45973 -136.231 -94.0426 149.896
lowerback -17.4189 -2.56944 -4.36291
upperback -6.14025 -3.13665 2.86657
thorax 3.54343 -1.66144 4.87651
lowerneck 7.16822 -1.13197 -5.56674
upperneck -0.919667 -1.82496 7.0553
head -1.43976 -1.0547 3.34986
rclavicle -2.93207e-015 1.78906e-014
rhumerus -54.8933 -35.4681 -51.2914
rradius 15.7828
rwrist 30.8969
rhand -10.6685 8.65764
rfingers 7.12502
rthumb 15.3398 -20.7534
lclavicle -2.93207e-015 1.78906e-014
lhumerus -28.3441 29.1334 82.1313
lradius 19.6773
lwrist -36.9371
lhand -8.6039 22.3818
lfingers 7.12502
lthumb 17.3277 51.6294
rfemur -33.2186 6.48191 24.7977
rtibia 24.2076
rfoot -6.20381 -0.581503
rtoes -10.8749
lfemur -6.27542 1.74518 -18.7568
ltibia 48.2533
lfoot 17.4962 -12.2244
ltoes -2.18974
638
root 4.02081 16.4447 -1.4721 -137.463 -94.3628 151.079
lowerback -17.4307 -2.55572 -4.44846
upperback -6.02348 -3.0936 2.84772
thorax 3.67214 -1.64132 4.91191
lowerneck 6.90272 -1.36476 -5.52764
upperneck -0.799783 -2.12618 7.12887
head -1.33135 -1.20225 3.36885
rclavicle 2.88486e-014 5.76476e-015
rhumerus -53.4442 -33.8321 -54.278
rradius 16.5383
rwrist 28.02
rhand -10.4385 8.53947
rfingers 7.12502
rthumb 15.5614 -20.8545
lclavicle 2.88486e-014 5.76476e-015
lhumerus -29.496 32.7838 80.0293
lradius 17.7834
lwrist -41.7987
lhand -8.62057 21.8623
lfingers 7.12502
lthumb 17.3117 51.1113
rfemur -32.3674 6.45729 25.0314
rtibia 24.1067
rfoot -6.49937 -0.897745
rtoes -10.2039
lfemur -7.61734 2.21476 -18.3583
ltibia 50.8659
lfoot 17.9173 -11.0304
ltoes -2.36659
639
root 3.83489 16.4684 -1.49332 -138.291 -94.7017 151.852
lowerback -17.4635 -2.61878 -4.66134
upperback -5.92224 -3.13556 2.91382
thorax 3.81537 -1.66371 5.09305
lowerneck 6.90087 -1.525 -5.76262
upperneck -0.896001 -2.34886 7.44467
head -1.34342 -1.31935 3.53185
rclavicle -7.85199e-015 1.74931e-014
rhumerus -52.2741 -32.4902 -56.5645
rradius 16.9972
rwrist 26.3318
rhand -10.6215 8.92138
rfingers 7.12502
rthumb 15.3851 -20.4862
lclavicle -7.85199e-015 1.74931e-014
lhumerus -31.2767 36.4884 77.4761
lradius 16.4966
lwrist -46.3482
lhand -8.35691 21.6222
lfingers 7.12502
lthumb 17.5654 50.8487
rfemur -31.4676 6.69278 25.2359
rtibia 23.9772
rfoot -6.71312 -1.46085
rtoes -8.95104
lfemur -8.98376 2.8027 -17.8905
ltibia 53.4391
lfoot 17.6627 -9.48646
ltoes -1.53709
640
root 3.65349 16.4916 -1.50939 -139.302 -95.2553 152.647
lowerback -17.186 -2.65036 -4.65167
upperback -5.87446 -3.18248 2.93794
thorax 3.72722 -1.68239 5.11077
lowerneck 6.96813 -1.73078 -5.96466
upperneck -0.956966 -2.63555 7.78119
head -1.35026 -1.47081 3.69925
rclavicle -1.20389e-014 -1.23246e-014
rhumerus -51.313 -31.0101 -58.8426
rradius 17.509
rwrist 24.6387
rhand -10.9865 8.98855
rfingers 7.12502
rthumb 15.0335 -20.4456
lclavicle -1.20389e-014 -1.23246e-014
lhumerus -33.2622 38.7999 75.2412
lradius 16.0322
lwrist -49.0734
lhand -7.5245 22.0297
lfingers 7.12502
lthumb 18.3663 51.1826
rfemur -30.345 6.67462 25.6327
rtibia 23.7663
rfoot -6.99491 -2.12108
rtoes -8.85471
lfemur -10.3516 3.27158 -17.3169
ltibia 56.0325
lfoot 16.5966 -7.9709
ltoes -0.605479
641
root 3.48131 16.5186 -1.51553 -139.103 -95.8747 152.164
lowerback -16.7561 -2.55778 -4.31848
upperback -5.81661 -3.11978 2.92183
thorax 3.53956 -1.6451 4.92772
lowerneck 7.01124 -1.96964 -6.08363
upperneck -0.947505 -2.96535 7.97463
head -1.32646 -1.64039 3.79977
rclavicle -1.15544e-015 1.5704e-014
rhumerus -50.5568 -29.8 -60.831
rradius 18.1855
rwrist 22.9606
rhand -11.0111 9.02727
rfingers 7.12502
rthumb 15.0098 -20.4087
lclavicle -1.15544e-015 1.5704e-014
lhumerus -35.4243 41.2182 72.624
lradius 15.4
lwrist -52.3334
lhand -6.89309 22.3026
lfingers 7.12502
lthumb 18.9736 51.3972
rfemur -29.1526 6.37333 26.218
rtibia 23.4847
rfoot -7.33059 -2.46842
rtoes -8.17825
lfemur -11.7152 3.63243 -16.7159
ltibia 58.5727
lfoot 14.7256 -6.69756
ltoes -0.0234256
642
root 3.32177 16.5409 -1.51962 -137.476 -96.4851 150.303
lowerback -16.3038 -2.4714 -3.81597
upperback -5.73212 -3.09342 2.9902
thorax 3.36958 -1.62776 4.7307
lowerneck 6.95068 -2.10814 -6.25718
upperneck -0.928971 -3.16005 8.15713
head -1.29012 -1.73954 3.90099
rclavicle 1.68097e-014 5.96354e-016
rhumerus -49.6116 -28.739 -62.6391
rradius 18.6395
rwrist 21.7552
rhand -11.2122 9.19697
rfingers 7.12502
rthumb 14.8161 -20.2534
lclavicle 1.68097e-014 5.96354e-016
lhumerus -38.5881 45.3877 68.2801
lradius 14.3543
lwrist -57.5497
lhand -6.67031 22.2695
lfingers 7.12502
lthumb 19.1879 51.3429
rfemur -28.0477 5.95844 26.9613
rtibia 23.1816
rfoot -7.59549 -2.54582
rtoes -8.12655
lfemur -13.163 4.03595 -16.0602
ltibia 61.0149
lfoot 12.6531 -5.41683
ltoes -0.184432
